<svg width="146" height="36" viewBox="0 0 146 36" fill="none" xmlns="http://www.w3.org/2000/svg">
<path d="M27.7188 0V35.3H20.1135V32.9C18.4124 34.8 16.0107 36 12.6084 36C6.0038 36 0.5 30.2 0.5 22.7C0.5 15.2 6.0038 9.4 12.6084 9.4C16.0107 9.4 18.5124 10.6 20.1135 12.5V0H27.7188ZM20.1135 22.7C20.1135 18.9 17.6118 16.5 14.1094 16.5C10.607 16.5 8.10524 18.9 8.10524 22.7C8.10524 26.5 10.607 28.9 14.1094 28.9C17.6118 28.8 20.1135 26.5 20.1135 22.7Z" fill="black"/>
<path d="M44.2298 29.1999C46.3313 29.1999 48.0325 28.3999 49.0332 27.2999L55.1374 30.7999C52.6356 34.1999 48.9331 35.9999 44.1298 35.9999C35.5238 35.9999 30.1201 30.1999 30.1201 22.6999C30.1201 15.1999 35.5238 9.3999 43.5294 9.3999C50.9345 9.3999 56.3382 15.0999 56.3382 22.6999C56.3382 23.7999 56.2381 24.7999 56.038 25.6999H38.1256C39.1263 28.2999 41.4279 29.1999 44.2298 29.1999ZM48.833 20.0999C48.0325 17.1999 45.7309 16.0999 43.4293 16.0999C40.5273 16.0999 38.626 17.4999 37.9255 20.0999H48.833Z" fill="black"/>
<path d="M82.6563 10.1001L73.3499 35.3001H64.7439L55.4375 10.1001H63.8433L69.147 26.1001L74.4506 10.1001C74.4506 10.1001 82.6563 10.1001 82.6563 10.1001Z" fill="black"/>
<path d="M83.958 10.1001H91.5633V35.3001H83.958V10.1001Z" fill="black"/>
<path d="M94.165 22.6999C94.165 15.1999 99.869 9.3999 107.574 9.3999C112.478 9.3999 116.781 11.9999 118.982 15.8999L112.378 19.6999C111.477 17.8999 109.676 16.8999 107.474 16.8999C104.172 16.8999 101.77 19.2999 101.77 22.6999C101.77 26.1999 104.172 28.4999 107.474 28.4999C109.676 28.4999 111.577 27.3999 112.378 25.6999L118.982 29.4999C116.881 33.3999 112.578 35.9999 107.574 35.9999C99.869 35.9999 94.165 30.1999 94.165 22.6999Z" fill="black"/>
<path d="M133.392 29.1999C135.493 29.1999 137.195 28.3999 138.195 27.2999L144.299 30.7999C141.798 34.1999 138.095 35.9999 133.292 35.9999C124.686 35.9999 119.282 30.1999 119.282 22.6999C119.282 15.1999 124.786 9.3999 132.691 9.3999C140.097 9.3999 145.5 15.0999 145.5 22.6999C145.5 23.7999 145.4 24.7999 145.2 25.6999H127.288C128.288 28.2999 130.59 29.1999 133.392 29.1999ZM138.095 20.0999C137.295 17.1999 134.993 16.0999 132.691 16.0999C129.789 16.0999 127.888 17.4999 127.188 20.0999H138.095Z" fill="black"/>
<path d="M83.958 0V10.1L91.5633 0H83.958Z" fill="#510094"/>
</svg>
